<svg xmlns="http://www.w3.org/2000/svg" xmlns:xlink="http://www.w3.org/1999/xlink" version="1.1" style="" xml:space="preserve" width="126" height="45.75"><rect id="backgroundrect" width="100%" height="100%" x="0" y="0" fill="none" stroke="none" class="" style=""/>
<style type="text/css">
	.st0{fill:#276ef5;}
	.st1{fill:#FFFFFF;}
</style>




<g class="currentLayer" style=""><title>Layer 1</title><path class="st0" d="M6.019596943153179,45.3592278276115 h90.3201793513261 c0.823973566012098,0 1.9014774600279183,-0.169155538975948 3.0423639360446684,-0.7330073355624396 c0,0 0.8873561480130285,-0.4510814372691943 1.6479471320241985,-1.1840887728316334 c1.3310342220195426,-1.3532443118075808 7.162231766105157,-9.247169464018462 14.894906770218693,-20.12950913813776 c-7.479144676109813,-10.882339674119292 -13.183577056193565,-18.719879646671526 -14.577993860214038,-20.1858943177964 c-0.8873561480130285,-0.9585480541970366 -1.9648600420288496,-1.46601467112488 -1.9648600420288496,-1.46601467112488 c-1.1408864760167512,-0.5638517965864952 -2.2817729520335015,-0.6766221559037914 -3.0423639360446684,-0.6766221559037914 H6.019596943153179 c-3.6128071740530445,0 -6.5917885280967825,2.5937182642978622 -6.5917885280967825,5.864058684499514 V39.49516914311198 C-0.5088090029426682,42.76550956331364 2.406789769100129,45.3592278276115 6.019596943153179,45.3592278276115 z" id="svg_1"/><image style="display:none;overflow:visible;" width="369" height="800" transform="matrix(2.5557,0,0,2.5557,-76.5294,-268.4973) " id="svg_2" xlink:href="2E4AB007.jpg">
</image><path class="st1" d="M6.822331144240195,28.885398142075587 c0,1.078600198687844 0.5246228343909006,2.059145833858612 1.3115570859771828,2.7455277784781487 v2.206227679134225 c0,0.6863819446196306 0.57708511782996,1.2256820439634588 1.3115570859771828,1.2256820439634588 h1.3115570859771828 c0.7344719681472215,0 1.3115570859771828,-0.5393000993439205 1.3115570859771828,-1.2256820439634588 v-1.2256820439634588 h10.649843538134718 v1.2256820439634588 c0,0.6863819446196306 0.57708511782996,1.2256820439634588 1.3115570859771828,1.2256820439634588 h1.3115570859771828 c0.7344719681472215,0 1.3115570859771828,-0.5393000993439205 1.3115570859771828,-1.2256820439634588 v-2.206227679134225 c0.8393965350253976,-0.6863819446196306 1.3115570859771828,-1.6669275797903045 1.3115570859771828,-2.7455277784781487 V16.43246857540684 c0,-4.363428076509914 -4.7740677929569415,-5.000782739370913 -10.649843538134718,-5.000782739370913 S6.822331144240195,12.069040498896923 6.822331144240195,16.43246857540684 C6.822331144240195,16.43246857540684 6.822331144240195,28.885398142075587 6.822331144240195,28.885398142075587 zM11.491474370318969,30.160107467797587 c-1.1017079522208333,0 -1.9935667706853164,-0.8334637898951233 -1.9935667706853164,-1.8630367068244575 s0.89185881846454,-1.8630367068244575 1.9935667706853164,-1.8630367068244575 s1.9935667706853164,0.8334637898951233 1.9935667706853164,1.8630367068244575 S12.645644605978887,30.160107467797587 11.491474370318969,30.160107467797587 zM23.505337277869927,30.160107467797587 c-1.1017079522208333,0 -1.9935667706853164,-0.8334637898951233 -1.9935667706853164,-1.8630367068244575 s0.89185881846454,-1.8630367068244575 1.9935667706853164,-1.8630367068244575 c1.1017079522208333,0 1.9935667706853164,0.8334637898951233 1.9935667706853164,1.8630367068244575 S24.607045230090762,30.160107467797587 23.505337277869927,30.160107467797587 zM25.49890404855526,22.658933358741205 H9.497907599633635 V16.43246857540684 h16.00099644892162 V22.658933358741205 z" id="svg_3"/><path class="st0" d="M270,22.5" id="svg_4"/></g></svg>