<?xml version="1.0" standalone="no"?>
<!DOCTYPE svg PUBLIC "-//W3C//DTD SVG 20010904//EN"
 "http://www.w3.org/TR/2001/REC-SVG-20010904/DTD/svg10.dtd">
<svg version="1.0" xmlns="http://www.w3.org/2000/svg"
  viewBox="-10 -40 426.00000 426.000000"
 preserveAspectRatio="xMidYMid meet" >

<g transform="translate(-65.000000,450.000000) scale(0.100000,-0.100000)"
fill="blue" stroke="none">
<path d="M2445 4411 c21 -5 3 -9 -65 -14 -266 -18 -606 -136 -835 -290 -405
-272 -681 -669 -785 -1128 -174 -765 130 -1526 785 -1966 229 -154 573 -273
835 -291 67 -4 86 -8 65 -13 -16 -4 35 -7 115 -7 80 0 132 3 115 7 -21 5 -3 9
65 14 119 8 345 58 459 102 181 69 367 173 515 289 128 100 298 289 405 450
45 68 133 245 174 352 88 229 133 558 108 799 -26 260 -84 461 -195 684 -174
346 -462 634 -806 806 -63 31 -153 72 -201 90 -114 44 -340 94 -459 102 -68 5
-86 9 -65 14 17 4 -35 7 -115 7 -80 0 -131 -3 -115 -7z m469 -1171 c97 -26
143 -49 184 -91 68 -70 67 -59 70 -529 2 -234 0 -439 -3 -457 -3 -18 -21 -55
-40 -84 -33 -47 -35 -56 -35 -130 0 -106 -12 -119 -113 -119 -90 0 -109 15
-117 93 l-5 52 -297 3 -298 2 0 -52 c0 -79 -23 -98 -117 -98 -101 0 -113 12
-113 121 0 74 -3 84 -28 118 -16 20 -34 51 -40 70 -16 46 -17 849 -1 906 24
86 96 152 198 182 128 37 191 42 436 39 207 -4 251 -7 319 -26z"/>
<path d="M2110 2775 l0 -185 450 0 450 0 0 185 0 185 -450 0 -450 0 0 -185z"/>
<path d="M2185 2350 c-42 -17 -70 -59 -70 -107 0 -38 5 -49 33 -74 43 -38 98
-40 141 -3 58 48 50 126 -18 171 -36 24 -53 27 -86 13z"/>
<path d="M2849 2337 c-68 -45 -76 -123 -18 -171 85 -72 215 22 167 120 -14 31
-72 74 -98 74 -9 0 -32 -10 -51 -23z"/>
</g>
</svg>
