<?xml version="1.0" encoding="utf-8"?>
<!-- Generator: Adobe Illustrator 25.4.1, SVG Export Plug-In . SVG Version: 6.00 Build 0)  -->
<svg version="1.1" id="Слой_1" xmlns="http://www.w3.org/2000/svg" xmlns:xlink="http://www.w3.org/1999/xlink" x="0px" y="0px"
	 viewBox="-6 -10 60 60" style="enable-background:new 0 0 50 50;" xml:space="preserve">
<style type="text/css">
	.st0{fill:none;stroke:#0D4882;stroke-width:2;}
	.st1{fill:#0D4882;}
</style>
<path class="st0" d="M47.7,34.7c-0.2,0.3-0.8,0.8-3,1.1c-1.3,0.2-2.3,0.2-3,0.2c-4.2,0-7.8-0.1-9.7-0.1c0,0,0,0,0,0
	c-5.6-0.1-10.8-0.1-10.8-0.1c-5.8,5.6-8.8,8.4-8.8,8.4l0,0c0,0,0-2.1,0.1-4.4c0,0,0.1-1.1,0-3.7c0,0,0,0,0,0c0,0-4.9,0-7.3,0
	c-0.2,0-1.5,0-2.5-1c-0.6-0.6-1-1.5-1-2.5V8c0-2,1.6-3.6,3.6-3.6h39.5c2,0,3.6,1.6,3.6,3.6v24.6C48.4,33.1,48.3,34,47.7,34.7z"/>
<path class="st1" d="M40.5,13.4c-0.5-0.7-1.3-0.7-1.4-0.7h-28c-0.1,0-1,0-1.4,0.7c-0.2,0.3-0.2,0.6-0.2,0.7c0,0.2,0,0.5,0.2,0.9
	c0.5,0.7,1.3,0.7,1.4,0.7h28c0.1,0,1-0.1,1.4-0.7c0.2-0.3,0.2-0.6,0.2-0.7C40.7,14.1,40.7,13.8,40.5,13.4z"/>
<path class="st1" d="M40.5,19.5c-0.5-0.7-1.3-0.7-1.4-0.7h-28c-0.1,0-1,0.1-1.4,0.7c-0.2,0.3-0.2,0.6-0.2,0.7c0,0.2,0,0.5,0.2,0.9
	c0.5,0.7,1.3,0.7,1.4,0.7h28c0.1,0,1,0,1.4-0.7c0.2-0.3,0.2-0.6,0.2-0.7C40.7,20.2,40.7,19.9,40.5,19.5z"/>
<path class="st1" d="M40.5,25.7c-0.4-0.6-1-0.7-1.2-0.7v0H11.1v0c-0.1,0-1,0-1.4,0.7c-0.2,0.3-0.2,0.6-0.2,0.7c0,0.2,0,0.5,0.2,0.9
	C10.2,28,11,28,11.1,28v0h28.2v0c0.3,0,0.9-0.1,1.2-0.7c0.2-0.3,0.2-0.6,0.2-0.7C40.7,26.4,40.7,26.1,40.5,25.7z"/>
</svg>
