<svg width="20" height="20" xmlns="http://www.w3.org/2000/svg">

 <g>
  <title>background</title>
  <rect fill="none" id="canvas_background" height="22" width="22" y="-1" x="-1"/>
 </g>
 <g>
  <title>Layer 1</title>
  <path stroke="null" id="svg_1" d="m14.507877,6.208989q0,-1.230384 -0.788276,-1.993222t-2.073767,-0.762838l-3.880732,0l0,5.51212l3.880732,0q1.285495,0 2.073767,-0.762838t0.788276,-1.993222zm2.874165,0q0,2.374639 -1.534101,3.875708t-3.959559,1.501065l-4.12328,0l0,1.451855l6.124281,0q0.169782,0 0.278929,0.110735t0.063614,0.172054l0.033871,1.685825q0.011658,0.172252 -0.097485,0.282988t-0.278929,0.098901l-6.112619,-0.011827l-0.011662,2.385995q0,0.172256 -0.115209,0.282987t-0.272864,0.110736l-2.025259,0q-0.169782,0 -0.278925,-0.110736t-0.109147,-0.282987l0,-2.362338l-2.716511,0q-0.169782,0 -0.278929,-0.110731t-0.109147,-0.282988l0,-1.574891q0,-0.172256 0.109147,-0.282988t0.278929,-0.110735l2.716511,0l0,-1.451855l-2.716511,0q-0.169782,0 -0.278929,-0.110731t-0.109147,-0.282991l0,-1.833268q0,-0.15995 0.109147,-0.276837t0.278929,-0.116886l2.716511,0l0,-7.739115q0,-0.172252 0.109147,-0.282987l0.278925,-0.017491l6.536612,-0.093241q2.425458,0 3.959559,1.501065t1.534101,3.875709z"/>
 </g>
</svg>