<?xml version="1.0" standalone="no"?>
<!DOCTYPE svg PUBLIC "-//W3C//DTD SVG 20010904//EN"
 "http://www.w3.org/TR/2001/REC-SVG-20010904/DTD/svg10.dtd">
<svg version="1.0" xmlns="http://www.w3.org/2000/svg"
 width="352.000000pt" height="354.000000pt" viewBox="0 0 352.000000 354.000000"
 preserveAspectRatio="xMidYMid meet">

<g transform="translate(0.000000,354.000000) scale(0.100000,-0.100000)"
fill="#000000" stroke="none">
<path d="M20 3160 l0 -370 370 0 370 0 0 370 0 370 -370 0 -370 0 0 -370z
m630 5 l0 -265 -265 0 -265 0 0 258 c0 142 3 262 7 265 3 4 123 7 265 7 l258
0 0 -265z"/>
<path d="M230 3160 l0 -161 158 3 157 3 3 158 3 157 -161 0 -160 0 0 -160z"/>
<path d="M970 3481 l0 -50 -52 -3 -53 -3 -3 -52 -3 -53 55 0 56 0 0 -55 0 -55
-55 0 -55 0 0 -50 0 -50 55 0 55 0 0 -55 0 -55 -55 0 -55 0 0 -105 0 -105 54
0 55 0 3 -52 3 -53 50 0 50 0 3 53 3 52 50 0 49 0 0 105 0 105 55 0 55 0 0 55
0 55 49 0 50 0 3 -52 3 -53 53 -3 52 -3 0 -160 0 -160 -52 3 -53 3 -3 108 -3
107 -49 0 -50 0 0 -160 0 -160 -160 0 -160 0 0 50 0 50 -160 0 -160 0 0 -50 0
-50 -50 0 -50 0 0 50 0 50 -265 0 -265 0 0 -155 0 -155 50 0 50 0 0 50 0 50
55 0 55 0 0 -50 0 -50 105 0 105 0 0 50 0 50 105 0 105 0 0 -50 0 -50 -50 0
-50 0 0 -160 0 -160 -55 0 -55 0 0 105 0 105 -210 0 -210 0 0 -105 0 -105 49
0 50 0 3 53 3 52 50 0 50 0 3 -52 3 -53 50 0 49 0 0 -55 0 -55 -50 0 -50 0 0
-50 0 -50 50 0 50 0 0 -55 0 -55 -155 0 -155 0 0 -425 0 -425 50 0 50 0 0 160
0 160 160 0 160 0 0 55 0 55 -160 0 -160 0 0 50 0 50 55 0 55 0 0 55 0 55 160
0 160 0 0 -55 0 -55 50 0 50 0 0 -50 0 -50 -50 0 -50 0 0 -160 0 -160 -55 0
-55 0 0 56 0 55 -52 -3 -53 -3 -3 -52 -3 -53 -50 0 -49 0 0 -55 0 -55 50 0 50
0 0 55 0 55 54 0 55 0 3 -52 3 -53 207 -3 207 -2 3 -103 3 -102 53 -3 52 -3 0
-49 0 -49 -52 -3 -53 -3 -3 -262 -2 -263 160 0 160 0 0 50 0 50 55 0 55 0 0
55 0 55 50 0 50 0 0 105 0 105 55 0 55 0 0 -50 c0 -54 2 -55 70 -52 31 2 40
-13 40 -65 l0 -43 50 0 50 0 0 53 0 54 -50 -1 c-28 -1 -50 2 -51 7 0 4 -1 26
-1 50 l-1 42 106 3 106 3 3 -51 3 -51 152 0 152 0 3 -52 3 -52 53 -3 52 -3 0
-55 0 -54 55 0 55 0 0 -50 0 -50 315 0 315 0 0 50 0 50 160 0 160 0 0 -50 0
-50 55 0 55 0 0 50 0 50 -55 0 -55 0 0 55 0 55 56 0 55 0 -3 53 -3 52 -155 2
-155 1 -3 106 -3 106 106 0 105 0 0 -55 0 -55 105 0 105 0 0 105 0 105 -50 0
-50 0 0 55 0 55 50 0 50 0 0 105 0 105 -50 0 -50 0 0 -105 0 -105 -55 0 -55 0
0 49 0 50 -52 3 -53 3 0 50 0 50 53 3 52 3 0 55 0 54 55 0 55 0 0 50 0 50 50
0 50 0 0 55 0 55 -50 0 -50 0 0 50 0 50 -55 0 -55 0 0 55 0 55 55 0 c30 0 54
3 54 8 -1 4 -1 28 0 55 l1 47 50 0 50 0 0 50 0 50 -49 0 -50 0 -3 53 -3 52
-52 3 -53 3 0 49 0 49 53 3 52 3 3 53 3 52 50 0 49 0 0 55 0 55 -105 0 -105 0
0 -110 0 -110 -55 0 -55 0 0 -50 0 -50 55 0 55 0 0 -160 0 -160 -55 0 -55 0 0
105 0 105 -50 0 -50 0 0 55 0 55 -55 0 -55 0 0 -55 0 -55 55 0 55 0 0 -105 0
-105 49 0 50 0 3 -52 3 -53 53 -3 52 -3 0 -155 0 -154 -55 0 -55 0 0 105 0
105 -50 0 -50 0 0 50 0 50 -105 0 -105 0 0 -50 0 -50 -55 0 -55 0 0 160 0 160
55 0 55 0 0 50 0 50 -55 0 -55 0 0 55 0 55 -210 0 -210 0 0 50 0 50 50 0 50 0
0 55 0 55 55 0 55 0 0 55 0 55 105 0 105 0 0 -110 0 -110 105 0 104 0 3 108 3
107 103 3 102 3 0 49 0 50 55 0 55 0 0 55 0 55 56 0 c54 0 55 1 54 28 -5 71
-4 72 50 72 l50 0 0 55 0 55 -50 0 -50 0 0 50 0 50 -55 0 -55 0 0 -50 0 -50
-55 0 -55 0 0 50 0 50 -50 0 -50 0 0 -50 0 -50 50 0 50 0 0 -55 0 -55 -50 0
-50 0 0 -50 0 -50 -55 0 -55 0 0 -55 0 -55 -49 0 -50 0 -3 53 -3 52 -105 0
-105 0 -3 -52 -3 -53 -50 0 -49 0 0 -50 0 -50 -55 0 -55 0 0 50 0 50 -50 0
-50 0 0 55 0 55 50 0 50 0 0 50 0 50 55 0 55 0 0 55 0 55 -55 0 -55 0 0 -55 0
-55 -50 0 -50 0 0 -50 0 -50 -55 0 -55 0 0 50 0 50 -55 0 -55 0 0 105 0 105
94 0 c124 0 126 1 126 61 l0 49 49 0 50 0 3 -52 3 -53 103 -3 102 -3 0 -49 0
-50 55 0 55 0 0 -56 0 -55 53 3 52 3 3 53 3 52 50 0 49 0 0 50 0 50 -50 0 -50
0 0 -50 0 -50 -55 0 -55 0 0 49 0 50 -52 3 -53 3 -3 158 -3 157 -49 0 -50 0 0
55 0 55 50 0 50 0 0 50 0 49 -102 3 -103 3 -3 53 -3 52 -49 0 -49 0 -3 53 -3
52 -52 3 -53 3 0 -55 0 -56 -50 0 c-44 0 -50 -3 -56 -24 -3 -13 -4 -37 -2 -52
l3 -29 108 -3 107 -3 0 -49 0 -50 50 0 50 0 0 -55 0 -55 -50 0 -50 0 0 -105 0
-105 -55 0 -55 0 0 160 0 160 -105 0 -105 0 0 50 0 49 -102 3 -103 3 -3 53 -3
52 -55 0 -54 0 0 55 0 55 -50 0 c-54 0 -55 2 -52 78 1 20 -3 22 -53 22 l-55 0
0 -161 0 -160 -52 3 -53 3 -3 53 -3 52 -105 0 -104 0 0 55 0 55 55 0 55 0 0
50 0 50 -55 0 -55 0 0 -50 0 -50 -50 0 -50 0 0 50 0 50 -55 0 -55 0 0 -49z
m740 -216 l0 -55 -50 0 c-54 0 -52 3 -53 -70 l-1 -25 212 -3 212 -2 0 -55 0
-55 50 0 50 0 0 -105 0 -105 -50 0 -50 0 0 105 0 105 -105 0 -105 0 0 -50 0
-50 50 0 49 0 3 -107 3 -108 53 -3 52 -3 0 -50 0 -49 -55 0 -55 0 0 -55 0 -55
-50 0 -50 0 0 -50 0 -50 105 0 105 0 0 51 0 50 50 -3 c28 -2 50 -6 50 -10 0
-5 0 -73 0 -153 l0 -144 -102 -3 -103 -3 -3 -52 -3 -53 -210 0 -209 0 0 -105
0 -105 160 0 160 0 0 50 0 50 105 0 105 0 0 55 0 55 105 0 105 0 0 -105 0
-105 56 0 55 0 -3 -52 -3 -53 -52 -3 -53 -3 0 55 0 56 -55 0 -55 0 0 -55 0
-55 -50 0 -50 0 0 -50 0 -49 158 -3 157 -3 3 -52 3 -53 49 0 49 0 3 53 3 52
50 0 50 0 3 -52 3 -53 50 0 49 0 0 -55 0 -55 -50 0 -50 0 0 55 0 55 -55 0 -55
0 0 -55 0 -55 -50 0 -50 0 0 -50 0 -50 50 0 50 0 0 -55 0 -55 55 0 55 0 0 -50
0 -50 -55 0 -55 0 0 50 0 50 -50 0 -50 0 0 55 0 55 -55 0 -55 0 0 -104 0 -105
-52 -3 -53 -3 -3 -52 -3 -53 111 0 111 0 -3 -53 -3 -52 -157 -3 -158 -3 0 -49
0 -50 210 0 210 0 0 -105 0 -105 55 0 55 0 0 -55 0 -55 -55 0 -55 0 0 -105 0
-105 104 0 105 0 3 51 c3 51 3 52 38 55 69 6 70 4 70 -112 l0 -104 -160 0
-160 0 0 55 0 55 -106 0 -105 0 3 53 3 52 50 0 50 0 3 53 3 52 -55 0 -56 0 0
55 0 55 -55 0 -55 0 0 -55 0 -55 -50 0 -50 0 0 55 0 55 50 0 50 0 0 50 0 50
-105 0 -105 0 0 -50 0 -50 -50 0 -50 0 0 50 0 50 50 0 50 0 0 55 0 55 -50 0
-50 0 0 50 0 50 105 0 105 0 0 55 0 55 -104 0 -105 0 -3 -52 -3 -53 -52 -3
-53 -3 0 -50 0 -49 -105 0 -105 0 0 -105 0 -105 55 0 55 0 0 50 0 50 50 0 50
0 0 -50 0 -50 -50 0 -50 0 -1 -47 c-1 -27 -1 -51 0 -55 0 -5 -24 -8 -54 -8
l-55 0 0 55 0 55 -55 0 -55 0 0 -55 0 -55 -50 0 -50 0 0 55 0 55 -105 0 -105
0 0 -55 0 -55 49 0 50 0 3 -52 3 -51 50 -1 50 -1 3 -52 3 -53 -55 0 -56 0 0
-55 0 -55 -105 0 -105 0 0 109 0 108 55 1 55 0 0 -54 0 -54 50 0 50 0 0 54 0
54 -47 -1 -48 0 -3 51 -3 52 -55 0 -54 0 0 55 0 55 55 0 55 0 0 50 0 50 50 0
50 0 0 55 0 55 55 0 55 0 0 49 0 50 -52 3 -53 3 -3 53 -3 52 -104 0 -104 0 -3
-52 -3 -53 -52 -3 -53 -3 0 55 0 56 55 0 55 0 0 55 0 55 -55 0 -55 0 0 50 0
50 -105 0 -105 0 0 55 0 55 215 0 215 0 0 105 0 105 -55 0 -55 0 0 -55 0 -55
-160 0 -160 0 0 55 0 55 160 0 160 0 0 56 0 55 53 -3 52 -3 3 -52 3 -53 49 0
49 0 3 53 3 52 50 0 50 0 3 -52 3 -53 49 0 49 0 3 53 3 52 107 3 107 3 -2 49
-1 50 -53 0 -53 0 0 56 0 55 -52 -3 -53 -3 -3 -52 -3 -53 -105 0 -104 0 0 -50
0 -50 -50 0 -50 0 0 105 0 105 50 0 50 0 0 50 0 50 -105 0 -105 0 0 55 0 55
-55 0 -55 0 0 105 0 105 -105 0 -105 0 0 55 0 55 55 0 55 0 0 50 0 50 -55 0
-55 0 0 55 0 55 104 0 105 0 3 -52 3 -53 53 -3 52 -3 0 -155 0 -154 55 0 55 0
0 50 0 50 50 0 50 0 0 55 0 55 -50 0 -50 0 0 50 0 50 105 0 105 0 0 55 0 55
49 0 50 0 3 -52 3 -53 105 -5 105 -5 3 -47 3 -48 -55 0 -56 0 0 -55 0 -55 -55
0 -55 0 0 -50 0 -50 265 0 265 0 0 50 0 50 -49 0 -50 0 -3 53 -3 52 -52 3 -53
3 0 49 0 49 -52 3 -53 3 3 53 4 52 -56 0 -56 0 0 50 0 50 55 0 c30 0 54 -3 54
-7 -1 -5 -1 -27 0 -50 l1 -43 50 0 50 0 0 50 0 50 -44 0 c-25 0 -48 5 -51 10
-6 9 -9 125 -6 193 1 14 10 17 51 17 l50 0 0 50 0 50 -105 0 -105 0 0 105 0
105 56 0 55 0 -1 48 c-1 26 -1 50 -1 55 1 4 24 7 51 7 l50 0 0 -55z m-420
-105 l0 -50 -160 0 -160 0 0 50 0 50 160 0 160 0 0 -50z m-210 -265 l0 -105
-55 0 -55 0 0 105 0 105 55 0 55 0 0 -105z m1480 0 l0 -105 -55 0 -55 0 0 105
0 105 55 0 55 0 0 -105z m-2120 -371 l0 -55 -52 3 -53 3 -3 53 -3 52 55 0 56
0 0 -56z m2860 -104 l0 -50 -55 0 -55 0 0 -55 0 -55 -50 0 -50 0 0 55 0 55 50
0 50 0 0 50 0 50 55 0 55 0 0 -50z m-950 -210 l0 -50 -55 0 -55 0 0 50 0 50
55 0 55 0 0 -50z m530 0 l0 -50 -55 0 -55 0 0 50 0 50 55 0 55 0 0 -50z
m-2122 -107 l3 -53 -55 0 -56 0 0 -55 0 -55 105 0 105 0 0 -105 0 -105 -50 0
-50 0 0 -50 0 -50 -160 0 -160 0 0 50 0 50 160 0 160 0 0 55 0 55 -55 0 -55 0
0 50 0 50 -50 0 -50 0 0 -50 0 -50 -55 0 -55 0 0 50 0 50 55 0 55 0 0 55 0 55
50 0 50 0 0 48 c0 27 3 52 7 56 4 4 28 6 53 4 l45 -3 3 -52z m2012 -423 l0
-50 -105 0 -105 0 0 50 0 50 105 0 105 0 0 -50z m0 -426 l0 -55 53 3 52 3 3
53 3 52 105 0 104 0 0 -55 0 -55 -55 0 -55 0 0 -50 0 -50 -160 0 -160 0 0 98
c0 54 3 102 7 105 3 4 28 7 55 7 l48 0 0 -56z m-2010 -209 l0 -55 -55 0 -55 0
0 55 0 55 55 0 55 0 0 -55z m1800 -111 l0 -55 -52 3 -53 3 -3 53 -3 52 55 0
56 0 0 -56z m420 -209 l0 -155 -160 0 -160 0 0 155 0 155 160 0 160 0 0 -155z
m210 0 l0 -55 -50 0 -50 0 0 55 0 55 50 0 50 0 0 -55z m220 -105 l0 -50 -55 0
-55 0 0 50 0 50 55 0 55 0 0 -50z m-530 -209 c0 -54 -5 -59 -65 -56 l-40 2 -3
51 -3 52 55 0 56 0 0 -49z m194 -57 c12 -4 16 -20 16 -55 l0 -49 -55 0 -55 0
0 -55 0 -55 -50 0 -50 0 0 110 0 110 89 0 c49 0 96 -3 105 -6z"/>
<path d="M1710 2845 l0 -55 55 0 55 0 0 55 0 55 -55 0 -55 0 0 -55z"/>
<path d="M1820 2630 l0 -50 -55 0 -55 0 0 -55 0 -55 55 0 55 0 0 55 0 55 50 0
50 0 0 50 0 50 -50 0 -50 0 0 -50z"/>
<path d="M1187 2153 c-4 -3 -7 -28 -7 -55 l0 -48 55 0 55 0 0 -55 0 -55 50 0
50 0 0 110 0 110 -98 0 c-54 0 -102 -3 -105 -7z"/>
<path d="M2030 1890 l0 -50 -105 0 -105 0 0 -105 0 -105 50 0 50 0 0 -110 0
-110 -50 0 -50 0 0 55 0 55 -54 0 -55 0 -3 53 -3 52 -47 3 -48 3 0 -55 0 -56
50 0 50 0 0 -55 0 -55 -210 0 -210 0 0 55 0 55 -56 0 -55 0 3 -52 3 -53 53 -3
52 -3 0 -50 0 -49 -105 0 -105 0 0 -55 0 -55 -55 0 -55 0 0 -50 0 -50 55 0 55
0 0 50 0 50 105 0 105 0 0 55 0 55 210 0 210 0 0 -55 0 -55 -105 0 -105 0 0
-49 0 -50 53 -3 c38 -2 52 -7 53 -18 1 -8 2 -57 2 -107 l2 -93 50 0 50 0 0 55
0 55 55 0 55 0 0 55 0 55 50 0 50 0 0 50 0 50 -50 0 -50 0 0 55 0 55 105 0
105 0 0 -55 0 -55 50 0 50 0 0 105 0 105 110 0 110 0 0 55 0 55 -160 0 -160 0
0 55 0 55 -55 0 -55 0 0 50 0 50 55 0 55 0 0 55 0 55 50 0 50 0 0 50 0 50 -50
0 -50 0 0 -50z m-210 -530 l0 -50 -55 0 -55 0 0 50 0 50 55 0 55 0 0 -50z m0
-210 l0 -50 -55 0 -55 0 0 50 0 50 55 0 55 0 0 -50z"/>
<path d="M1290 990 l0 -110 50 0 50 0 0 -50 0 -50 -50 0 -50 0 0 -105 0 -105
50 0 50 0 0 105 0 105 55 0 55 0 0 105 0 105 -55 0 -55 0 0 55 0 55 -50 0 -50
0 0 -110z"/>
<path d="M2240 620 l0 -50 55 0 55 0 0 -55 0 -55 50 0 50 0 0 55 0 55 -50 0
-50 0 0 50 0 50 -55 0 -55 0 0 -50z"/>
<path d="M2770 725 l0 -56 53 3 52 3 0 50 0 50 -52 3 -53 3 0 -56z"/>
<path d="M2030 3481 l0 -50 -52 -3 -53 -3 -3 -52 -3 -53 55 0 56 0 0 55 0 55
50 0 50 0 0 50 0 50 -50 0 -50 0 0 -49z"/>
<path d="M2450 3480 l0 -50 55 0 55 0 0 -55 0 -55 50 0 50 0 0 55 0 55 -50 0
-50 0 0 50 0 50 -55 0 -55 0 0 -50z"/>
<path d="M2770 3160 l0 -370 370 0 370 0 0 370 0 370 -370 0 -370 0 0 -370z
m638 3 l2 -263 -265 0 -265 0 0 265 0 265 263 -2 262 -3 3 -262z"/>
<path d="M2980 3160 l0 -160 160 0 160 0 0 160 0 160 -160 0 -160 0 0 -160z"/>
<path d="M20 1890 l0 -50 50 0 50 0 0 50 0 50 -50 0 -50 0 0 -50z"/>
<path d="M20 410 l0 -370 370 0 370 0 0 370 0 370 -370 0 -370 0 0 -370z m630
-5 l0 -265 -265 0 -265 0 0 265 0 265 265 0 265 0 0 -265z"/>
<path d="M230 410 l0 -160 160 0 161 0 -3 158 -3 157 -157 3 -158 3 0 -161z"/>
<path d="M1390 90 l0 -50 55 0 55 0 0 50 0 50 -55 0 -55 0 0 -50z"/>
<path d="M1607 128 c-4 -11 -3 -44 2 -80 1 -5 96 -8 211 -8 l210 0 0 50 0 50
-209 0 c-158 0 -210 -3 -214 -12z"/>
</g>
</svg>
