<svg xmlns="http://www.w3.org/2000/svg" xmlns:xlink="http://www.w3.org/1999/xlink" version="1.1" style="enable-background:new 0 0 250 100;" xml:space="preserve" width="149.5" height="67"><rect id="backgroundrect" width="100%" height="100%" x="0" y="0" fill="none" stroke="none" class="" style=""/>
<style type="text/css">
	.st0{fill:#003FF5;}
	.st1{fill:#FFFFFF;}
</style>




<g class="currentLayer" style=""><title>Layer 1</title><path class="st0" d="M54.407953392867654,113.48422406899134 h116.00196840988824 c1.0582635714586297,0 2.442146703366068,-0.24539440489008368 3.9074347253857087,-1.0633757545236935 c0,0 1.1396684615708317,-0.6543850797068896 2.1165271429172594,-1.717760834230583 c1.7095026923562475,-1.9631552391206657 9.198752582678857,-13.414894133991213 19.130149176367535,-29.201934181919906 c-9.605777033239871,-15.787040047928686 -16.93221714333807,-27.15698080783588 -18.72312472580652,-29.283732316883256 c-1.1396684615708317,-1.3905682943771387 -2.5235515934782713,-2.126751509047388 -2.5235515934782713,-2.126751509047388 c-1.4652880220196411,-0.8179813496336111 -2.930576044039282,-0.9815776195603326 -3.9074347253857087,-0.9815776195603326 H54.407953392867654 c-4.64007873639553,0 -8.466108571669036,3.7627142083146086 -8.466108571669036,8.507006036189551 V104.97721803280179 C46.023249711310825,109.72150986067672 49.767874656472124,113.48422406899134 54.407953392867654,113.48422406899134 z" id="svg_1" transform="translate(-45.625,-48.125) "/><image style="display:none;overflow:visible;" width="369" height="800" transform="matrix(2.5557,0,0,2.5557,-76.5294,-268.4973) " id="svg_2" xlink:href="2E4AB007.jpg">
</image><path class="st1" d="M8.961369247299388,42.6470902047054 c0,1.7470771735243313 0.849059550219046,3.3353291494555415 2.122648875547507,4.447105532607389 v3.5735669458452213 c0,1.111776383151996 0.9339655052409025,1.9853149699140125 2.122648875547507,1.9853149699140125 h2.122648875547507 c1.1886833703066038,0 2.122648875547507,-0.8735385867621625 2.122648875547507,-1.9853149699140125 v-1.9853149699140125 h17.235908869445755 v1.9853149699140125 c0,1.111776383151996 0.9339655052409025,1.9853149699140125 2.122648875547507,1.9853149699140125 h2.122648875547507 c1.1886833703066038,0 2.122648875547507,-0.8735385867621625 2.122648875547507,-1.9853149699140125 v-3.5735669458452213 c1.3584952803504047,-1.111776383151996 2.122648875547507,-2.700028359083057 2.122648875547507,-4.447105532607389 V22.47629011037902 c0,-7.067721292893886 -7.726441906992924,-8.100085077249172 -17.235908869445755,-8.100085077249172 S8.961369247299388,15.408568817485133 8.961369247299388,22.47629011037902 C8.961369247299388,22.47629011037902 8.961369247299388,42.6470902047054 8.961369247299388,42.6470902047054 zM16.51799924424853,44.71181777341597 c-1.783025055459906,0 -3.22642629083221,-1.350014179541529 -3.22642629083221,-3.0176787542692995 s1.4434012353723051,-3.0176787542692995 3.22642629083221,-3.0176787542692995 s3.22642629083221,1.350014179541529 3.22642629083221,3.0176787542692995 S18.38593025473034,44.71181777341597 16.51799924424853,44.71181777341597 zM35.961462944263644,44.71181777341597 c-1.783025055459906,0 -3.22642629083221,-1.350014179541529 -3.22642629083221,-3.0176787542692995 s1.4434012353723051,-3.0176787542692995 3.22642629083221,-3.0176787542692995 c1.783025055459906,0 3.22642629083221,1.350014179541529 3.22642629083221,3.0176787542692995 S37.74448799972356,44.71181777341597 35.961462944263644,44.71181777341597 zM39.187889235095895,32.5616901575422 H13.291572953416278 V22.47629011037902 h25.89631628167958 V32.5616901575422 z" id="svg_3" transform="translate(0,-0.625) "/><path class="st0" d="M270,22.5" id="svg_4"/></g></svg>