<svg xmlns="http://www.w3.org/2000/svg" xmlns:xlink="http://www.w3.org/1999/xlink" version="1.1" style="" width="110.01123581057823" height="41.2471910473555"><rect id="backgroundrect" width="100%" height="100%" x="" y="0" fill="none" stroke="none" class="" style=""/>
<style type="text/css">
	.st0{fill:#276ef5;}
	.st1{fill:#FFFFFF;}
</style>




<g class="currentLayer" style=""><title>Layer 1</title><path class="st0" d="M5.701712674487337,39.74125395663707 h85.96455632921815 c0.7842380577402362,0 1.8097801332466978,-0.14774013447409937 2.8956482131947165,-0.6402072493877611 c0,0 0.8445640621817929,-0.39397369193093107 1.5684761154804756,-1.034180941318691 c1.2668460932726886,-1.1819210757927896 6.816838501895894,-8.076460684584056 14.176611043765803,-17.58107600241774 c-7.118468524103681,-9.504615317833679 -12.547808923843773,-16.34990821513358 -13.874981021558021,-17.6303227139091 c-0.8445640621817929,-0.8371940953532266 -1.8701061376882562,-1.2804144987755228 -1.8701061376882562,-1.2804144987755228 c-1.0858680799480194,-0.49246711491366557 -2.171736159896038,-0.5909605378963959 -2.8956482131947165,-0.5909605378963959 H5.701712674487337 c-3.438582253168727,0 -6.273904461921886,2.265348728602846 -6.273904461921886,5.121657995102086 V34.61959596153498 C-0.5118657829929905,37.47590522803423 2.2631304213186034,39.74125395663707 5.701712674487337,39.74125395663707 z" id="svg_1"/><image style="display:none;overflow:visible;" width="369" height="800" transform="matrix(2.5557,0,0,2.5557,-76.5294,-268.4973) " id="svg_2" xlink:href="2E4AB007.jpg">
</image><path class="st1" d="M5.698735429671103,25.51461147520547 c0,1.078600198687844 0.5246228343909006,2.059145833858612 1.3115570859771828,2.7455277784781487 v2.206227679134225 c0,0.6863819446196306 0.57708511782996,1.2256820439634588 1.3115570859771828,1.2256820439634588 h1.3115570859771828 c0.7344719681472215,0 1.3115570859771828,-0.5393000993439205 1.3115570859771828,-1.2256820439634588 v-1.2256820439634588 h10.649843538134718 v1.2256820439634588 c0,0.6863819446196306 0.57708511782996,1.2256820439634588 1.3115570859771828,1.2256820439634588 h1.3115570859771828 c0.7344719681472215,0 1.3115570859771828,-0.5393000993439205 1.3115570859771828,-1.2256820439634588 v-2.206227679134225 c0.8393965350253976,-0.6863819446196306 1.3115570859771828,-1.6669275797903045 1.3115570859771828,-2.7455277784781487 V13.061681908536723 c0,-4.363428076509914 -4.7740677929569415,-5.000782739370913 -10.649843538134718,-5.000782739370913 S5.698735429671103,8.698253832026806 5.698735429671103,13.061681908536723 C5.698735429671103,13.061681908536723 5.698735429671103,25.51461147520547 5.698735429671103,25.51461147520547 zM10.367878655749877,26.78932080092747 c-1.1017079522208333,0 -1.9935667706853164,-0.8334637898951228 -1.9935667706853164,-1.8630367068244575 s0.8918588184645408,-1.8630367068244575 1.9935667706853164,-1.8630367068244575 s1.9935667706853164,0.8334637898951228 1.9935667706853164,1.8630367068244575 S11.522048891409796,26.78932080092747 10.367878655749877,26.78932080092747 zM22.381741563300835,26.78932080092747 c-1.1017079522208333,0 -1.9935667706853164,-0.8334637898951228 -1.9935667706853164,-1.8630367068244575 s0.8918588184645408,-1.8630367068244575 1.9935667706853164,-1.8630367068244575 c1.1017079522208333,0 1.9935667706853164,0.8334637898951228 1.9935667706853164,1.8630367068244575 S23.48344951552167,26.78932080092747 22.381741563300835,26.78932080092747 zM24.37530833398617,19.288146691871088 H8.374311885064543 V13.061681908536723 h16.00099644892162 V19.288146691871088 z" id="svg_3"/><path class="st0" d="M270,22.5" id="svg_4"/></g></svg>